<svg width="207" height="50" viewBox="0 0 207 50" fill="none" xmlns="http://www.w3.org/2000/svg">
<path d="M66.3083 37.7246L60.7983 18.8766H65.6243L68.8923 32.4426L72.6923 18.8766H78.0883L81.8883 32.4426L85.1943 18.8766H90.0203L84.4723 37.7246H79.4183L75.3903 23.6266L71.3623 37.7246H66.3083ZM101.579 38.1806C99.6792 38.1806 97.9945 37.7753 96.5252 36.9646C95.0558 36.1539 93.9032 35.0139 93.0672 33.5446C92.2312 32.0753 91.8132 30.3779 91.8132 28.4526C91.8132 26.5019 92.2185 24.7666 93.0292 23.2466C93.8652 21.7266 95.0052 20.5486 96.4492 19.7126C97.9185 18.8513 99.6412 18.4206 101.617 18.4206C103.467 18.4206 105.101 18.8259 106.519 19.6366C107.938 20.4473 109.04 21.5619 109.825 22.9806C110.636 24.3739 111.041 25.9319 111.041 27.6546C111.041 27.9333 111.029 28.2246 111.003 28.5286C111.003 28.8326 110.991 29.1493 110.965 29.4786H96.6392C96.7405 30.9479 97.2472 32.1006 98.1592 32.9366C99.0965 33.7726 100.224 34.1906 101.541 34.1906C102.529 34.1906 103.353 33.9753 104.011 33.5446C104.695 33.0886 105.202 32.5059 105.531 31.7966H110.471C110.117 32.9873 109.521 34.0766 108.685 35.0646C107.875 36.0273 106.861 36.7873 105.645 37.3446C104.455 37.9019 103.099 38.1806 101.579 38.1806ZM101.617 22.3726C100.427 22.3726 99.3752 22.7146 98.4632 23.3986C97.5512 24.0573 96.9685 25.0706 96.7152 26.4386H106.101C106.025 25.1973 105.569 24.2093 104.733 23.4746C103.897 22.7399 102.859 22.3726 101.617 22.3726ZM115.246 37.7246V11.1246H124.328C127.444 11.1246 130.003 11.6819 132.004 12.7966C134.031 13.8859 135.525 15.4313 136.488 17.4326C137.476 19.4086 137.97 21.7393 137.97 24.4246C137.97 27.1099 137.476 29.4533 136.488 31.4546C135.525 33.4306 134.031 34.9759 132.004 36.0906C130.003 37.1799 127.444 37.7246 124.328 37.7246H115.246ZM120.11 33.5446H124.1C126.329 33.5446 128.09 33.1899 129.382 32.4806C130.674 31.7459 131.599 30.7073 132.156 29.3646C132.713 27.9966 132.992 26.3499 132.992 24.4246C132.992 22.5246 132.713 20.8906 132.156 19.5226C131.599 18.1546 130.674 17.1033 129.382 16.3686C128.09 15.6339 126.329 15.2666 124.1 15.2666H120.11V33.5446ZM151.192 38.1806C149.368 38.1806 147.721 37.7626 146.252 36.9266C144.808 36.0906 143.655 34.9379 142.794 33.4686C141.958 31.9739 141.54 30.2513 141.54 28.3006C141.54 26.3499 141.97 24.6399 142.832 23.1706C143.693 21.6759 144.846 20.5106 146.29 19.6746C147.759 18.8386 149.406 18.4206 151.23 18.4206C153.028 18.4206 154.65 18.8386 156.094 19.6746C157.563 20.5106 158.716 21.6759 159.552 23.1706C160.413 24.6399 160.844 26.3499 160.844 28.3006C160.844 30.2513 160.413 31.9739 159.552 33.4686C158.716 34.9379 157.563 36.0906 156.094 36.9266C154.624 37.7626 152.99 38.1806 151.192 38.1806ZM151.192 33.9626C152.458 33.9626 153.56 33.4939 154.498 32.5566C155.435 31.5939 155.904 30.1753 155.904 28.3006C155.904 26.4259 155.435 25.0199 154.498 24.0826C153.56 23.1199 152.471 22.6386 151.23 22.6386C149.938 22.6386 148.823 23.1199 147.886 24.0826C146.974 25.0199 146.518 26.4259 146.518 28.3006C146.518 30.1753 146.974 31.5939 147.886 32.5566C148.823 33.4939 149.925 33.9626 151.192 33.9626ZM174.427 38.1806C172.501 38.1806 170.804 37.7626 169.335 36.9266C167.865 36.0906 166.7 34.9253 165.839 33.4306C165.003 31.9359 164.585 30.2259 164.585 28.3006C164.585 26.3753 165.003 24.6653 165.839 23.1706C166.7 21.6759 167.865 20.5106 169.335 19.6746C170.804 18.8386 172.501 18.4206 174.427 18.4206C176.833 18.4206 178.86 19.0539 180.507 20.3206C182.153 21.5619 183.205 23.2846 183.661 25.4886H178.531C178.277 24.5766 177.771 23.8673 177.011 23.3606C176.276 22.8286 175.402 22.5626 174.389 22.5626C173.046 22.5626 171.906 23.0693 170.969 24.0826C170.031 25.0959 169.563 26.5019 169.563 28.3006C169.563 30.0993 170.031 31.5053 170.969 32.5186C171.906 33.5319 173.046 34.0386 174.389 34.0386C175.402 34.0386 176.276 33.7853 177.011 33.2786C177.771 32.7719 178.277 32.0499 178.531 31.1126H183.661C183.205 33.2406 182.153 34.9506 180.507 36.2426C178.86 37.5346 176.833 38.1806 174.427 38.1806ZM195.768 38.1806C194.096 38.1806 192.626 37.9146 191.36 37.3826C190.093 36.8253 189.08 36.0653 188.32 35.1026C187.56 34.1399 187.104 33.0253 186.952 31.7586H191.854C192.006 32.4933 192.411 33.1266 193.07 33.6586C193.754 34.1653 194.628 34.4186 195.692 34.4186C196.756 34.4186 197.528 34.2033 198.01 33.7726C198.516 33.3419 198.77 32.8479 198.77 32.2906C198.77 31.4799 198.415 30.9353 197.706 30.6566C196.996 30.3526 196.008 30.0613 194.742 29.7826C193.931 29.6053 193.108 29.3899 192.272 29.1366C191.436 28.8833 190.663 28.5666 189.954 28.1866C189.27 27.7813 188.712 27.2746 188.282 26.6666C187.851 26.0333 187.636 25.2606 187.636 24.3486C187.636 22.6766 188.294 21.2706 189.612 20.1306C190.954 18.9906 192.829 18.4206 195.236 18.4206C197.465 18.4206 199.238 18.9399 200.556 19.9786C201.898 21.0173 202.696 22.4486 202.95 24.2726H198.352C198.073 22.8793 197.022 22.1826 195.198 22.1826C194.286 22.1826 193.576 22.3599 193.07 22.7146C192.588 23.0693 192.348 23.5126 192.348 24.0446C192.348 24.6019 192.715 25.0453 193.45 25.3746C194.184 25.7039 195.16 26.0079 196.376 26.2866C197.693 26.5906 198.896 26.9326 199.986 27.3126C201.1 27.6673 201.987 28.2119 202.646 28.9466C203.304 29.6559 203.634 30.6819 203.634 32.0246C203.659 33.1899 203.355 34.2413 202.722 35.1786C202.088 36.1159 201.176 36.8506 199.986 37.3826C198.795 37.9146 197.389 38.1806 195.768 38.1806Z" fill="white"/>
<path d="M0 20.679C0 9.25828 9.25829 0 20.679 0V0V28.5654C20.679 39.9861 11.4207 49.2444 0 49.2444V49.2444V20.679Z" fill="#FF8882"/>
<path d="M23.6787 11.2368C23.6787 5.03088 28.7096 0 34.9155 0V0C41.1214 0 46.1523 5.03087 46.1523 11.2368V11.8855C46.1523 18.0914 41.1214 23.1223 34.9155 23.1223V23.1223C28.7096 23.1223 23.6787 18.0914 23.6787 11.8855V11.2368Z" fill="#FFC2B4"/>
<path d="M23.6787 37.3588C23.6787 31.1529 28.7096 26.1221 34.9155 26.1221V26.1221C41.1214 26.1221 46.1523 31.1529 46.1523 37.3588V38.0076C46.1523 44.2135 41.1214 49.2444 34.9155 49.2444V49.2444C28.7096 49.2444 23.6787 44.2135 23.6787 38.0076V37.3588Z" fill="#9DBEB9"/>
</svg>
